<?xml version="1.0" standalone="no"?>
<!DOCTYPE svg PUBLIC "-//W3C//DTD SVG 20010904//EN"
 "http://www.w3.org/TR/2001/REC-SVG-20010904/DTD/svg10.dtd">
<svg version="1.0" xmlns="http://www.w3.org/2000/svg"
 width="300.000000pt" height="300.000000pt" viewBox="0 0 300.000000 300.000000"
 preserveAspectRatio="xMidYMid meet">
<metadata>
Created by potrace 1.11, written by Peter Selinger 2001-2013
</metadata>
<g transform="translate(0.000000,300.000000) scale(0.100000,-0.100000)"
fill="#000000" stroke="none">
<path d="M1457 2975 c-21 -7 -55 -24 -75 -38 -20 -14 -107 -69 -192 -122 -85
-54 -184 -116 -220 -139 -36 -23 -108 -69 -160 -102 -52 -32 -96 -62 -98 -66
-2 -5 -7 -8 -12 -8 -11 0 -560 -349 -588 -374 -13 -12 -29 -30 -35 -41 -8 -14
-12 -289 -13 -993 -1 -1078 -5 -1013 64 -1059 30 -20 44 -21 163 -20 l131 2
32 80 c40 98 131 281 187 372 38 62 175 261 188 273 3 3 30 34 60 70 223 266
513 477 826 603 115 46 291 97 390 112 17 3 39 7 50 9 19 4 76 10 190 22 130
13 430 1 563 -23 l32 -5 0 253 c0 254 -5 306 -34 334 -15 15 -323 215 -331
215 -2 0 -32 19 -67 43 -35 24 -85 56 -113 72 -27 16 -52 32 -55 35 -3 3 -86
57 -185 119 -99 62 -268 169 -375 237 -249 159 -257 163 -323 139z m389 -623
c161 -103 312 -198 334 -212 172 -107 327 -208 346 -225 12 -11 26 -36 31 -55
12 -47 11 -185 -2 -183 -115 17 -422 23 -575 11 -466 -37 -892 -198 -1220
-463 -111 -90 -251 -231 -295 -298 -9 -15 -20 -25 -24 -23 -8 5 -6 913 3 952
9 40 51 79 156 143 78 48 383 241 588 373 46 29 90 58 100 63 9 6 43 27 75 48
78 52 113 65 154 60 23 -3 138 -70 329 -191z"/>
<path d="M2519 1485 c-2 -2 -33 -6 -69 -9 -55 -5 -111 -15 -246 -42 -101 -20
-314 -94 -421 -147 -108 -53 -292 -165 -323 -197 -3 -3 -25 -21 -50 -42 -87
-69 -188 -176 -307 -322 -69 -85 -210 -334 -268 -471 -27 -63 -85 -225 -85
-235 0 -6 390 -10 1043 -10 1022 0 1043 0 1075 20 18 11 41 34 51 51 19 30 19
61 20 710 1 540 -1 679 -11 686 -12 8 -402 16 -409 8z m46 -562 c0 -411 -1
-429 -20 -463 -42 -71 -30 -70 -597 -70 -280 0 -508 2 -508 4 0 50 163 381
210 426 3 3 23 28 45 55 83 105 233 236 340 297 130 75 301 141 419 162 16 3
30 7 32 9 2 1 20 4 41 5 l38 3 0 -428z"/>
</g>
</svg>
