<?xml version="1.0" standalone="no"?>
<!DOCTYPE svg PUBLIC "-//W3C//DTD SVG 20010904//EN"
 "http://www.w3.org/TR/2001/REC-SVG-20010904/DTD/svg10.dtd">
<svg version="1.0" xmlns="http://www.w3.org/2000/svg"
 width="300.000000pt" height="300.000000pt" viewBox="0 0 300.000000 300.000000"
 preserveAspectRatio="xMidYMid meet">
<metadata>
Created by potrace 1.11, written by Peter Selinger 2001-2013
</metadata>
<g transform="translate(0.000000,300.000000) scale(0.100000,-0.100000)"
fill="#000000" stroke="none">
<path d="M1297 2914 c-2 -3 -18 -6 -35 -9 -17 -2 -40 -6 -51 -10 -11 -3 -29
-8 -42 -10 -68 -13 -278 -87 -305 -107 -6 -4 -37 -22 -68 -39 -113 -60 -238
-158 -348 -274 -63 -66 -168 -206 -168 -224 0 -6 -4 -11 -9 -11 -12 0 -115
-224 -141 -305 -25 -83 -48 -189 -57 -265 -14 -110 -7 -335 12 -420 3 -14 8
-38 10 -55 9 -46 37 -149 45 -160 4 -5 10 -22 14 -37 9 -38 69 -166 108 -230
129 -213 313 -395 523 -516 90 -51 262 -123 330 -138 18 -3 72 -16 85 -19 12
-3 107 -19 125 -20 39 -4 45 12 45 131 0 134 8 126 -135 150 -110 19 -298 102
-415 185 -84 60 -220 192 -265 259 -16 25 -32 47 -35 50 -35 35 -138 262 -156
345 -27 118 -35 188 -36 285 0 137 4 182 26 275 96 409 386 728 777 855 50 17
107 32 127 35 21 3 53 9 72 13 l35 8 3 119 c1 67 -2 123 -7 128 -10 10 -57 18
-64 11z"/>
<path d="M1635 2892 c-4 -15 -7 -654 -6 -1421 0 -1087 2 -1396 12 -1402 7 -4
22 -5 34 -3 12 2 35 5 51 7 69 9 146 32 153 46 5 9 9 545 9 1191 0 646 1 1194
1 1216 1 30 6 44 18 48 25 10 220 -91 230 -118 4 -11 8 -513 8 -1114 1 -947 3
-1094 15 -1103 8 -5 21 -7 29 -4 13 5 159 102 196 130 20 16 20 29 20 898 1
485 4 888 9 895 11 19 37 14 43 -8 3 -11 9 -20 13 -20 20 0 143 -277 156 -350
3 -14 9 -41 14 -60 18 -72 23 -185 24 -582 0 -352 2 -408 15 -413 21 -8 43 23
96 130 42 86 105 257 110 300 1 11 4 21 5 23 1 1 3 10 4 20 1 9 5 31 9 47 10
48 20 155 20 225 1 71 -12 250 -18 260 -2 4 -7 20 -9 36 -5 26 -8 39 -20 92
-7 30 -46 146 -62 182 -50 115 -153 291 -188 319 -9 7 -16 19 -16 25 -1 16
-184 195 -255 248 -130 98 -316 194 -430 222 -5 2 -17 6 -25 9 -8 3 -49 13
-90 22 -41 9 -86 19 -100 22 -61 14 -68 12 -75 -15z"/>
<path d="M1305 2395 c-5 -1 -39 -11 -75 -21 -186 -53 -361 -177 -484 -343 -45
-63 -116 -200 -131 -256 -5 -16 -9 -34 -11 -40 -39 -138 -43 -363 -7 -475 2
-8 5 -17 5 -20 8 -50 70 -185 125 -268 38 -57 159 -184 223 -234 64 -49 191
-110 288 -138 132 -38 132 -38 132 99 0 117 -4 126 -54 135 -37 7 -150 60
-201 94 -180 121 -292 329 -296 547 -5 304 181 560 480 660 l66 22 3 113 c2
84 -1 116 -10 122 -13 8 -34 9 -53 3z"/>
</g>
</svg>
